name rise49.25peak52.1432fall72.8391.mot
datacolumns 19
datarows 18
range 24.11324100000000 24.14157600000000
endheader
time	ground_force1_vx	ground_force1_vy	ground_force1_vz	ground_force1_px	ground_force1_py	ground_force1_pz	ground_force2_vx	ground_force2_vy	ground_force2_vz	ground_force2_px	ground_force2_py	ground_force2_pz	ground_torque1_x	ground_torque1_y	ground_torque1_z	ground_torque2_x	ground_torque2_y	ground_torque2_z	
24.11324100000000	1.34237200000000	706.90906600000005	41.08766800000000	0.21723900000000	0.00000000000000	0.10747400000000	0.00000000000000	0.00000000000000	0.00000000000000	0.00000000000000	0.00000000000000	0.00000000000000	0.00000000000000	17.95148100000000	0.00000000000000	0.00000000000000	0.00000000000000	0.00000000000000	
24.11490500000000	0.99736300000000	708.15233200000000	41.06061200000000	0.21660700000000	0.00000000000000	0.10737900000000	0.00000000000000	0.00000000000000	0.00000000000000	0.00000000000000	0.00000000000000	0.00000000000000	0.00000000000000	17.98605700000000	0.00000000000000	0.00000000000000	0.00000000000000	0.00000000000000	
24.11657100000000	0.63853000000000	709.42735400000004	41.03779300000000	0.21594300000000	0.00000000000000	0.10728600000000	0.00000000000000	0.00000000000000	0.00000000000000	0.00000000000000	0.00000000000000	0.00000000000000	0.00000000000000	18.02439500000000	0.00000000000000	0.00000000000000	0.00000000000000	0.00000000000000	
24.11823700000000	0.26576000000000	710.73179900000002	41.01906400000000	0.21524500000000	0.00000000000000	0.10719400000000	0.00000000000000	0.00000000000000	0.00000000000000	0.00000000000000	0.00000000000000	0.00000000000000	0.00000000000000	18.06635900000000	0.00000000000000	0.00000000000000	0.00000000000000	0.00000000000000	
24.11990600000000	-0.12101100000000	712.06338500000004	41.00428100000000	0.21451300000000	0.00000000000000	0.10710600000000	0.00000000000000	0.00000000000000	0.00000000000000	0.00000000000000	0.00000000000000	0.00000000000000	0.00000000000000	18.11181000000000	0.00000000000000	0.00000000000000	0.00000000000000	0.00000000000000	
24.12157000000000	-0.52179100000000	713.41988700000002	40.99330800000000	0.21374800000000	0.00000000000000	0.10701900000000	0.00000000000000	0.00000000000000	0.00000000000000	0.00000000000000	0.00000000000000	0.00000000000000	0.00000000000000	18.16061500000000	0.00000000000000	0.00000000000000	0.00000000000000	0.00000000000000	
24.12323700000000	-0.93653800000000	714.79913699999997	40.98601500000000	0.21294900000000	0.00000000000000	0.10693600000000	0.00000000000000	0.00000000000000	0.00000000000000	0.00000000000000	0.00000000000000	0.00000000000000	0.00000000000000	18.21263700000000	0.00000000000000	0.00000000000000	0.00000000000000	0.00000000000000	
24.12490900000000	-1.36516100000000	716.19902600000000	40.98227600000000	0.21211600000000	0.00000000000000	0.10685500000000	0.00000000000000	0.00000000000000	0.00000000000000	0.00000000000000	0.00000000000000	0.00000000000000	0.00000000000000	18.26774600000000	0.00000000000000	0.00000000000000	0.00000000000000	0.00000000000000	
24.12657700000000	-1.80751600000000	717.61750700000005	40.98197500000000	0.21125000000000	0.00000000000000	0.10677600000000	0.00000000000000	0.00000000000000	0.00000000000000	0.00000000000000	0.00000000000000	0.00000000000000	0.00000000000000	18.32581000000000	0.00000000000000	0.00000000000000	0.00000000000000	0.00000000000000	
24.12824300000000	-2.26341200000000	719.05259400000000	40.98500300000000	0.21035200000000	0.00000000000000	0.10670100000000	0.00000000000000	0.00000000000000	0.00000000000000	0.00000000000000	0.00000000000000	0.00000000000000	0.00000000000000	18.38670100000000	0.00000000000000	0.00000000000000	0.00000000000000	0.00000000000000	
24.12991000000000	-2.73261100000000	720.50236700000005	40.99125600000000	0.20942400000000	0.00000000000000	0.10662800000000	0.00000000000000	0.00000000000000	0.00000000000000	0.00000000000000	0.00000000000000	0.00000000000000	0.00000000000000	18.45029300000000	0.00000000000000	0.00000000000000	0.00000000000000	0.00000000000000	
24.13157400000000	-3.21482700000000	721.96496900000000	41.00064000000000	0.20846500000000	0.00000000000000	0.10655900000000	0.00000000000000	0.00000000000000	0.00000000000000	0.00000000000000	0.00000000000000	0.00000000000000	0.00000000000000	18.51646200000000	0.00000000000000	0.00000000000000	0.00000000000000	0.00000000000000	
24.13324100000000	-3.70973300000000	723.43860900000004	41.01306900000000	0.20747800000000	0.00000000000000	0.10649200000000	0.00000000000000	0.00000000000000	0.00000000000000	0.00000000000000	0.00000000000000	0.00000000000000	0.00000000000000	18.58508800000000	0.00000000000000	0.00000000000000	0.00000000000000	0.00000000000000	
24.13490800000000	-4.21696000000000	724.92156100000000	41.02846300000000	0.20646400000000	0.00000000000000	0.10642800000000	0.00000000000000	0.00000000000000	0.00000000000000	0.00000000000000	0.00000000000000	0.00000000000000	0.00000000000000	18.65605100000000	0.00000000000000	0.00000000000000	0.00000000000000	0.00000000000000	
24.13657700000000	-4.73609900000000	726.41216699999995	41.04675100000000	0.20542500000000	0.00000000000000	0.10636700000000	0.00000000000000	0.00000000000000	0.00000000000000	0.00000000000000	0.00000000000000	0.00000000000000	0.00000000000000	18.72923500000000	0.00000000000000	0.00000000000000	0.00000000000000	0.00000000000000	
24.13823700000000	-5.26670400000000	727.90883399999996	41.06787300000000	0.20436200000000	0.00000000000000	0.10630800000000	0.00000000000000	0.00000000000000	0.00000000000000	0.00000000000000	0.00000000000000	0.00000000000000	0.00000000000000	18.80452800000000	0.00000000000000	0.00000000000000	0.00000000000000	0.00000000000000	
24.13990900000000	-5.80829500000000	729.41003599999999	41.09177200000000	0.20327900000000	0.00000000000000	0.10625300000000	0.00000000000000	0.00000000000000	0.00000000000000	0.00000000000000	0.00000000000000	0.00000000000000	0.00000000000000	18.88181700000000	0.00000000000000	0.00000000000000	0.00000000000000	0.00000000000000	
24.14157600000000	-6.36036000000000	730.91431100000000	41.11840600000000	0.20217600000000	0.00000000000000	0.10620000000000	0.00000000000000	0.00000000000000	0.00000000000000	0.00000000000000	0.00000000000000	0.00000000000000	0.00000000000000	18.96099500000000	0.00000000000000	0.00000000000000	0.00000000000000	0.00000000000000	
